PathFileType	4	(X/Y/Z)	C:/Users/opensim2020/Desktop/walking_exp_matlab/subject06_walking12_static.trc																																																																																																																																														
DataRate	CameraRate	NumFrames	NumMarkers	Units	OrigDataRate	OrigDataStartFrame	OrigNumFrames																																																																																																																																										
100	100	9	48	mm	100	91	363																																																																																																																																										
Frame#	Time	LFHD			RFHD			LBHD			RBHD			C7			T10			CLAV			STRN			RBAK			LSHO			LUPA			LELB			LFRM			LWRA			LWRB			LFIN			RSHO			RUPA			RELB			RFRM			RWRA			RWRB			RFIN			LASI			RASI			LPSI			RPSI			LTHI			LKNE			LTIB			LANK			LHEE			LTOE			RTHI			RKNE			RTIB			RANK			RHEE			RTOE			*39			*40			*41			*42			*43			*44			*45			*46			*47		
		X1	Y1	Z1	X2	Y2	Z2	X3	Y3	Z3	X4	Y4	Z4	X5	Y5	Z5	X6	Y6	Z6	X7	Y7	Z7	X8	Y8	Z8	X9	Y9	Z9	X10	Y10	Z10	X11	Y11	Z11	X12	Y12	Z12	X13	Y13	Z13	X14	Y14	Z14	X15	Y15	Z15	X16	Y16	Z16	X17	Y17	Z17	X18	Y18	Z18	X19	Y19	Z19	X20	Y20	Z20	X21	Y21	Z21	X22	Y22	Z22	X23	Y23	Z23	X24	Y24	Z24	X25	Y25	Z25	X26	Y26	Z26	X27	Y27	Z27	X28	Y28	Z28	X29	Y29	Z29	X30	Y30	Z30	X31	Y31	Z31	X32	Y32	Z32	X33	Y33	Z33	X34	Y34	Z34	X35	Y35	Z35	X36	Y36	Z36	X37	Y37	Z37	X38	Y38	Z38	X39	Y39	Z39	X40	Y40	Z40	X41	Y41	Z41	X42	Y42	Z42	X43	Y43	Z43	X44	Y44	Z44	X45	Y45	Z45	X46	Y46	Z46	X47	Y47	Z47	X48	Y48	Z48
																																																																																																																																																	
91	0.9	391.68771	1677.35962	661.34882	405.88733	1664.6637	530.43719	523.92438	1619.89978	676.44055	535.86743	1613.38684	547.10956	526.83887	1460.15356	617.07465	555.9845	1133.18127	601.27576	413.88654	1388.01428	607.11847	370.48413	1214.49231	609.38635	601.4671	1290.5127	535.12469	460.4433	1415.29114	772.45557	441.20343	1215.89954	849.54108	428.41986	1105.53003	868.61786	372.26733	967.90924	900.47717	286.11667	868.6499	865.47919	343.62622	851.98578	904.04645	282.77988	784.41602	909.89313	471.56802	1419.76624	451.76538	477.83453	1226.21472	351.4537	441.76489	1113.71338	320.36005	412.90964	1001.93439	282.37762	335.45056	867.18243	280.63174	393.87592	869.01166	247.79485	349.12332	800.80084	226.64346	377.98404	973.94647	702.35156	381.771	981.47888	482.70026	534.65894	1005.04926	677.35437	530.97052	1011.23907	511.23026	480.81967	666.60352	780.64783	500.25763	503.42838	770.24774	544.78949	252.66354	794.88287	543.23962	74.93459	771.5351	582.94586	56.37809	729.58569	395.37534	39.1558	770.51099	477.60754	650.6933	413.78754	492.91119	525.49609	429.86182	561.92169	269.86679	407.55893	574.93787	78.81724	436.54663	612.81207	51.43511	479.66995	418.49954	35.85479	431.78711	498.58417	1713.29724	612.78705	NaN	NaN	NaN	NaN	NaN	NaN	NaN	NaN	NaN	NaN	NaN	NaN	NaN	NaN	NaN	NaN	NaN	NaN	NaN	NaN	NaN	NaN	NaN	NaN
92	0.91	391.7587	1677.34875	661.31134	405.97217	1664.67114	530.40015	523.76135	1619.87805	676.13275	535.8941	1613.36182	547.04669	526.93097	1460.17261	617.09381	555.95325	1133.15222	601.26611	413.9314	1388.00623	607.09283	370.55914	1214.4585	609.3653	601.52557	1290.50085	535.11121	460.47827	1415.2771	772.4176	441.17487	1215.87207	849.48029	428.37888	1105.49817	868.58435	372.17709	967.92639	900.40009	285.98737	868.69684	865.43866	343.49741	851.96057	903.97034	282.6456	784.46967	909.89166	471.60654	1419.72937	451.73865	477.8533	1226.16638	351.42395	441.78479	1113.698	320.30319	412.88535	1001.92993	282.32584	335.422	867.21259	280.52573	393.84766	869.01385	247.72018	349.0939	800.80865	226.53986	377.98367	973.93408	702.34833	381.96094	981.43188	482.71323	534.65118	1005.07715	677.37201	530.93286	1011.18744	511.16846	480.79553	666.57007	780.59131	500.24826	503.42108	770.23273	544.79456	252.64331	794.87616	543.23529	74.9308	771.52875	582.9494	56.38403	729.5921	395.28476	39.15203	770.47449	477.57544	650.70404	413.76526	492.86014	525.48242	429.83572	561.89471	269.8479	407.54517	574.93549	78.83637	436.51486	612.80627	51.41941	479.63678	418.49292	35.83666	431.75479	498.6683	1713.27795	612.78021	NaN	NaN	NaN	NaN	NaN	NaN	NaN	NaN	NaN	NaN	NaN	NaN	NaN	NaN	NaN	NaN	NaN	NaN	NaN	NaN	NaN	NaN	NaN	NaN
93	0.92	391.83228	1677.35376	661.30615	406.00827	1664.70862	530.41187	523.96899	1619.85449	676.24707	535.96918	1613.36084	547.02216	526.90295	1460.13049	616.98499	556.02081	1133.16284	601.25256	413.94604	1388.02222	607.04443	370.63031	1214.43652	609.31909	601.55402	1290.47681	535.11566	460.49109	1415.27625	772.3855	441.14929	1215.87585	849.42664	428.30704	1105.52734	868.5473	372.04706	967.91119	900.26978	285.86938	868.72223	865.38599	343.37598	852.00049	903.92041	282.50925	784.47589	909.82556	471.67407	1419.73474	451.71228	477.85147	1226.16919	351.35431	441.80933	1113.73462	320.24146	412.93036	1001.96198	282.24319	335.41443	867.2406	280.43167	393.8273	869.02759	247.645	349.07434	800.89618	226.43668	377.95026	973.93903	702.32776	381.76825	981.49451	482.6506	534.62872	1005.06866	677.36237	530.91974	1011.18903	511.13013	480.73206	666.58466	780.58179	500.21603	503.40918	770.22968	544.78412	252.64159	794.90088	543.22046	74.94107	771.52771	582.92889	56.38782	729.58954	395.27591	39.1834	770.40948	477.55905	650.7049	413.72803	492.84784	525.47211	429.8118	561.88922	269.85532	407.51382	574.95544	78.85519	436.50928	612.79694	51.434	479.62213	418.4679	35.83467	431.76837	498.73288	1713.27368	612.76813	NaN	NaN	NaN	NaN	NaN	NaN	NaN	NaN	NaN	NaN	NaN	NaN	NaN	NaN	NaN	NaN	NaN	NaN	NaN	NaN	NaN	NaN	NaN	NaN
94	0.93	391.91147	1677.34143	661.27863	406.02835	1664.7124	530.38	524.04852	1619.83948	676.20819	535.96796	1613.40771	546.95508	526.98676	1460.1759	617.03223	555.97595	1133.14587	601.23236	414.01923	1388.01697	607.00592	370.65073	1214.41101	609.28821	601.54474	1290.47742	535.03198	460.5257	1415.26111	772.32477	441.13116	1215.87683	849.39825	428.24066	1105.52429	868.49152	371.94119	967.90369	900.18268	285.75742	868.7619	865.34308	343.27188	852.04425	903.8974	282.3447	784.51721	909.75769	471.72211	1419.74548	451.69269	477.88556	1226.21497	351.32413	441.81717	1113.74866	320.18271	412.90411	1001.98108	282.22455	335.37265	867.26904	280.37039	393.77612	869.13629	247.60622	349.06381	800.87482	226.40134	377.93478	973.90063	702.30225	381.76932	981.50562	482.60977	534.61945	1005.05017	677.33777	530.92072	1011.20953	511.11423	480.70587	666.57672	780.53613	500.21118	503.41315	770.21887	544.77344	252.6432	794.87842	543.20746	74.92852	771.50085	582.92596	56.37884	729.57874	395.36176	39.17466	770.54309	477.55206	650.69141	413.72568	492.7644	525.50446	429.54755	561.88873	269.84671	407.5134	574.93353	78.8096	436.53854	612.82416	51.43975	479.64706	418.48846	35.84175	431.80444	498.79779	1713.28052	612.72699	NaN	NaN	NaN	NaN	NaN	NaN	NaN	NaN	NaN	NaN	NaN	NaN	NaN	NaN	NaN	NaN	NaN	NaN	NaN	NaN	NaN	NaN	NaN	NaN
95	0.94	391.97711	1677.33691	661.25824	406.07361	1664.73767	530.35114	524.11298	1619.85413	676.13556	536.02808	1613.40613	546.90643	526.98944	1460.11426	616.91846	556.02441	1133.14417	601.2074	414.06537	1388.02356	606.94489	370.673	1214.42419	609.2262	601.58362	1290.45703	535.03473	460.55676	1415.27722	772.27313	441.08759	1215.87231	849.32574	428.19284	1105.55188	868.40381	371.84506	967.94226	900.10992	285.65091	868.79401	865.27887	343.15622	852.05811	903.82672	282.23724	784.56378	909.73944	471.79379	1419.74487	451.63785	477.93912	1226.22791	351.2692	441.84528	1113.73987	320.13104	412.95081	1001.99042	282.15155	335.37903	867.29474	280.32397	393.75867	869.15198	247.53574	349.0499	800.93024	226.33734	377.92166	973.92584	702.28131	381.75351	981.52551	482.53214	534.58905	1005.02728	677.29022	530.92023	1011.20245	511.10443	480.69962	666.57355	780.51147	500.19846	503.41367	770.15784	544.78564	252.66347	794.87402	543.21777	74.93522	771.52637	582.93878	56.40612	729.57745	395.3681	39.1599	770.4953	477.52618	650.67645	413.72693	492.87411	525.45013	429.7973	561.88867	269.8522	407.50778	574.95636	78.83761	436.49838	612.82355	51.4189	479.64703	418.48907	35.84081	431.7908	498.97028	1713.30969	612.90479	NaN	NaN	NaN	NaN	NaN	NaN	NaN	NaN	NaN	NaN	NaN	NaN	NaN	NaN	NaN	NaN	NaN	NaN	NaN	NaN	NaN	NaN	NaN	NaN
96	0.95	392.0228	1677.33704	661.21783	406.13336	1664.7688	530.33075	524.16016	1619.87842	676.09308	536.12573	1613.44373	546.90826	527.05682	1460.14111	616.92792	556.07147	1133.14685	601.2348	414.11722	1388.03796	606.89441	370.74582	1214.41052	609.203	601.65247	1290.42358	535.04163	460.62033	1415.27271	772.21899	441.06714	1215.8877	849.27478	428.14056	1105.54578	868.3526	371.78189	967.95886	900.07825	285.56064	868.84845	865.20544	343.03238	852.07855	903.78662	282.11346	784.62543	909.64307	471.86697	1419.75012	451.58722	477.97736	1226.2124	351.24133	441.86746	1113.7699	320.10318	412.92877	1001.99628	282.08359	335.36902	867.32495	280.24414	393.798	869.16046	247.51947	349.06741	800.89886	226.32027	377.89017	973.91125	702.25409	381.88455	981.44666	482.6001	534.57147	1005.0614	677.28107	530.92639	1011.20172	511.06448	480.69034	666.58636	780.48712	500.19574	503.42542	770.13739	544.79016	252.64842	794.82837	543.2215	74.94325	771.5061	582.93353	56.39078	729.57703	395.26666	39.15737	770.45148	477.5199	650.68073	413.71555	492.84955	525.46729	429.79535	561.89508	269.87604	407.51508	574.95697	78.84255	436.49338	612.79938	51.42087	479.63721	418.51935	35.81573	431.71692	498.92398	1713.36023	612.76892	NaN	NaN	NaN	NaN	NaN	NaN	NaN	NaN	NaN	NaN	NaN	NaN	NaN	NaN	NaN	NaN	NaN	NaN	NaN	NaN	NaN	NaN	NaN	NaN
97	0.96	392.06516	1677.32544	661.16711	406.15515	1664.7417	530.28497	524.23474	1619.88403	676.0437	536.13922	1613.48413	546.82526	527.09668	1460.10645	616.82928	556.02246	1133.12756	601.15924	414.19046	1388.00562	606.82355	370.81146	1214.38806	609.14569	601.66699	1290.42847	535.00885	460.66318	1415.28076	772.17694	441.05676	1215.89209	849.21497	428.1196	1105.55298	868.26807	371.72897	967.98712	899.99664	285.48514	868.86774	865.13934	342.96936	852.13306	903.73859	282.00467	784.65222	909.54163	471.91913	1419.75232	451.56265	477.96603	1226.23743	351.18832	441.87753	1113.77161	320.05792	412.95038	1002.01514	282.03717	335.37521	867.3175	280.17706	393.7594	869.17432	247.45496	349.05634	800.91742	226.26741	377.8992	973.89087	702.25092	381.78058	981.49664	482.49048	534.57446	1005.05029	677.27625	530.92792	1011.19867	511.03391	480.65613	666.57568	780.45239	500.18918	503.42981	770.13989	544.74561	252.70049	794.88678	543.21625	74.94951	771.5072	582.95294	56.40899	729.59607	395.34381	39.17276	770.5061	477.58554	650.68695	413.67255	492.81387	525.4491	429.7847	561.89886	269.84824	407.52496	574.96649	78.83558	436.51086	612.82446	51.42159	479.69217	418.49225	35.83562	431.79288	499.03027	1713.32446	612.78625	NaN	NaN	NaN	NaN	NaN	NaN	NaN	NaN	NaN	NaN	NaN	NaN	NaN	NaN	NaN	NaN	NaN	NaN	NaN	NaN	NaN	NaN	NaN	NaN
98	0.97	392.11285	1677.31665	661.11987	406.20786	1664.75793	530.22211	524.27942	1619.89404	675.96204	536.21753	1613.49512	546.79016	527.14569	1460.14734	616.8302	556.0506	1133.06616	601.1792	414.25565	1387.97791	606.80341	370.88922	1214.34119	609.11389	601.66895	1290.34534	534.92267	460.7178	1415.31555	772.14435	441.04602	1215.89233	849.17145	428.10086	1105.56384	868.19952	371.68701	968.0365	899.94427	285.40366	868.91345	865.04169	342.86307	852.17505	903.66534	281.92255	784.70984	909.48016	471.96252	1419.73108	451.51587	478.02197	1226.19458	351.15573	441.88004	1113.76794	320.01303	412.9498	1002.01208	282.02097	335.33832	867.33252	280.12225	393.74335	869.15979	247.43111	349.04181	800.91742	226.25583	377.86588	973.87201	702.18604	381.80386	981.49127	482.43033	534.57697	1005.03156	677.2337	530.95233	1011.19843	511.02313	480.6575	666.5882	780.44641	500.18375	503.42175	770.11987	544.76135	252.68976	794.82831	543.21588	74.95195	771.52716	582.95068	56.38412	729.57233	395.26529	39.17286	770.4541	477.56424	650.67206	413.65924	492.76584	525.52014	429.47025	561.90594	269.83405	407.53348	574.96936	78.83013	436.51959	612.80127	51.41378	479.65674	418.504	35.84322	431.82053	498.96335	1713.34851	612.62061	NaN	NaN	NaN	NaN	NaN	NaN	NaN	NaN	NaN	NaN	NaN	NaN	NaN	NaN	NaN	NaN	NaN	NaN	NaN	NaN	NaN	NaN	NaN	NaN
99	0.98	392.15744	1677.29651	661.05951	406.22522	1664.7019	530.15869	524.36755	1619.93811	675.96014	536.25653	1613.4884	546.72577	527.14667	1460.09998	616.73584	556.07507	1133.08447	601.14801	414.33237	1387.93994	606.79041	371.00235	1214.28101	609.11804	601.73309	1290.26721	534.88324	460.76312	1415.31494	772.10596	441.08109	1215.89539	849.12494	428.10205	1105.58374	868.18024	371.65778	968.07581	899.86761	285.34335	868.97583	864.97308	342.82343	852.19763	903.6095	281.85822	784.75964	909.36536	472.0314	1419.67969	451.49118	478.05252	1226.14539	351.15015	441.92709	1113.72461	319.98126	412.98965	1001.98639	281.96753	335.32941	867.31165	280.08359	393.77414	869.13751	247.38954	348.99503	800.95795	225.95096	377.86765	973.86285	702.19427	381.8028	981.45038	482.42441	534.60419	1005.02606	677.23035	530.97321	1011.19794	511.01102	480.65564	666.58197	780.38959	500.14154	503.42871	770.07532	544.76013	252.65811	794.7981	543.23206	74.95322	771.5238	582.96692	56.38462	729.56866	395.40155	39.16079	770.51862	477.56512	650.66968	413.61829	492.74295	525.55475	429.43375	561.89008	269.83279	407.50137	574.9693	78.8206	436.53046	612.82642	51.4044	479.67041	418.49222	35.84824	431.78564	499.00397	1713.35718	612.53192	NaN	NaN	NaN	NaN	NaN	NaN	NaN	NaN	NaN	NaN	NaN	NaN	NaN	NaN	NaN	NaN	NaN	NaN	NaN	NaN	NaN	NaN	NaN	NaN
